# File created by Blade
# Date/Time:  Thu Jan 22 19:29:39 2015
# Frame Rate: 120.000 fps
#------------------------------------------------------
:FULLY-SPECIFIED
:DEGREES
1699
root 1.228383 34.255580 1.984840 54.602077 -26.885451 -23.580800
RightUpLeg -25.946149 -11.429354 -4.912674
RightLeg 116.411364 -0.000000 -0.000000
RightFoot 3.828612 2.864060 8.484484
RightToeBase -7.450963 -0.000000 0.000000
LeftUpLeg -48.239198 13.012560 5.270311
LeftLeg 20.945439 -0.000000 -0.000000
LeftFoot -22.175364 12.104725 -11.505235
LeftToeBase 5.933074 -0.000000 -0.000000
Spine -7.417745 -3.257609 -0.378657
RightShoulder -17.425834 -24.617404 -10.487235
RightArm 15.076007 -38.853019 69.970308
RightForeArm 7.219297 0.000000 29.766430
RightHand 0.798645 -0.000000 5.660431
RightHandThumb1 -24.326973 -0.000000 -32.862282
LeftShoulder -24.386152 -8.655899 41.944311
LeftArm 73.104021 -29.931001 -76.005000
LeftForeArm 2.949492 0.000000 55.236124
LeftHand -9.203401 -0.000000 25.309076
LeftHandThumb1 -26.253704 0.000000 33.147579
Head -34.605540 27.379622 -9.306845
1700
root 1.223658 34.248546 1.990112 54.070237 -27.076190 -23.277113
RightUpLeg -26.351329 -11.192006 -4.455413
RightLeg 115.536156 -0.000000 -0.000000
RightFoot 2.779747 2.590393 8.899119
RightToeBase -8.195284 -0.000000 0.000000
LeftUpLeg -47.786594 13.064956 4.877645
LeftLeg 20.790340 -0.000000 -0.000000
LeftFoot -21.936063 11.969897 -11.288493
LeftToeBase 5.705824 -0.000000 -0.000000
Spine -7.333384 -3.373964 -0.555558
RightShoulder -17.414426 -24.593956 -10.512167
RightArm 15.107958 -38.782183 70.053550
RightForeArm 7.170295 -0.000000 30.095840
RightHand 0.641185 -0.000000 5.882616
RightHandThumb1 -24.326973 -0.000000 -32.862282
LeftShoulder -24.294625 -8.783891 42.001924
LeftArm 72.333130 -29.604220 -75.910553
LeftForeArm 3.093271 -0.000000 55.482670
LeftHand -9.109803 0.000000 25.329180
LeftHandThumb1 -26.253704 0.000000 33.147579
Head -34.431902 27.375960 -9.309283
1701
root 1.223184 34.241756 1.994649 53.552734 -27.282138 -22.973274
RightUpLeg -26.779144 -10.887528 -4.018510
RightLeg 114.606030 -0.000000 -0.000000
RightFoot 1.727279 2.332055 9.502546
RightToeBase -7.944002 -0.000000 0.000000
LeftUpLeg -47.340871 13.127715 4.461340
LeftLeg 20.604612 -0.000000 -0.000000
LeftFoot -21.695463 11.841177 -11.073807
LeftToeBase 5.597488 -0.000000 -0.000000
Spine -7.256054 -3.455682 -0.733955
RightShoulder -17.415597 -24.626037 -10.538995
RightArm 15.248548 -38.688574 70.121030
RightForeArm 7.053329 -0.000000 30.299055
RightHand 0.722627 0.000000 6.057352
RightHandThumb1 -24.326973 -0.000000 -32.862282
LeftShoulder -24.173300 -8.910577 42.029331
LeftArm 71.561848 -29.300302 -75.751068
LeftForeArm 3.187281 -0.000000 55.759978
LeftHand -9.161027 -0.000000 25.430937
LeftHandThumb1 -26.253704 0.000000 33.147579
Head -34.266846 27.363887 -9.309997
1702
root 1.221156 34.231282 1.997798 52.995846 -27.452830 -22.659026
RightUpLeg -27.168697 -10.547103 -3.574935
RightLeg 113.638776 -0.000000 -0.000000
RightFoot 0.671761 2.094182 10.250555
RightToeBase -8.255875 -0.000000 0.000000
LeftUpLeg -46.861646 13.144417 4.086250
LeftLeg 20.421982 -0.000000 -0.000000
LeftFoot -21.501638 11.778305 -10.854500
LeftToeBase 5.341756 -0.000000 -0.000000
Spine -7.140114 -3.565398 -0.875119
RightShoulder -17.414304 -24.606710 -10.599353
RightArm 15.361493 -38.681758 70.176601
RightForeArm 6.924644 -0.000000 30.561959
RightHand 0.702419 -0.000000 6.244506
RightHandThumb1 -24.326973 -0.000000 -32.862282
LeftShoulder -24.050916 -9.086233 42.077388
LeftArm 70.705767 -28.993036 -75.505313
LeftForeArm 3.258066 -0.000000 55.998358
LeftHand -9.127414 -0.000000 25.584335
LeftHandThumb1 -26.253704 0.000000 33.147579
Head -34.090044 27.337224 -9.315297
